<?xml version="1.0" standalone="no"?>
<!DOCTYPE svg PUBLIC "-//W3C//DTD SVG 20010904//EN"
 "http://www.w3.org/TR/2001/REC-SVG-20010904/DTD/svg10.dtd">
<svg version="1.0" xmlns="http://www.w3.org/2000/svg"
 width="256.000000pt" height="256.000000pt" viewBox="0 0 256.000000 256.000000"
 preserveAspectRatio="xMidYMid meet">

<g transform="translate(0.000000,256.000000) scale(0.100000,-0.100000)"
fill="#000000" stroke="none">
<path d="M1105 2499 c-169 -22 -365 -99 -511 -200 -99 -69 -236 -204 -313
-309 -104 -141 -180 -317 -217 -500 -13 -67 -16 -115 -11 -235 8 -197 49 -364
124 -506 l36 -66 -22 -62 c-53 -154 -7 -294 126 -379 61 -39 135 -52 287 -52
118 0 123 -1 191 -35 252 -124 673 -126 948 -3 68 30 81 32 232 39 126 6 172
12 217 29 67 25 136 86 168 150 31 61 38 168 15 230 -28 76 -29 90 -8 118 29
39 89 194 113 292 41 166 36 418 -10 585 -106 379 -406 712 -763 845 -149 56
-426 83 -602 59z m-102 -243 c3 -8 -3 -22 -13 -31 -17 -16 -19 -15 -30 5 -10
18 -9 24 1 31 20 13 36 11 42 -5z m22 -56 c12 -39 -25 -57 -45 -21 -8 16 -6
22 7 30 26 15 31 13 38 -9z m26 -67 c6 -16 18 -40 26 -56 13 -26 13 -28 -9
-36 -18 -7 -25 -4 -35 13 -10 17 -9 23 5 35 16 13 16 13 -1 8 -24 -9 -48 40
-26 54 22 14 29 11 40 -18z m54 -130 c3 -13 2 -23 -4 -23 -5 0 -16 -3 -24 -6
-22 -8 -31 38 -10 54 19 14 28 8 38 -25z m23 -57 c4 -17 -12 -35 -30 -36 -10
0 -20 38 -13 50 10 17 39 7 43 -14z m182 9 c-22 -12 -23 -14 -7 -20 10 -4 28
0 42 9 24 15 28 15 73 -8 141 -72 205 -241 145 -385 -14 -34 -14 -36 10 -56
68 -56 59 -150 -17 -175 -47 -15 -81 -4 -116 39 -25 30 -32 33 -40 21 -5 -8
-10 -22 -10 -32 0 -27 -57 -68 -95 -68 -36 0 -95 46 -95 74 0 9 -8 16 -20 16
-11 0 -20 -5 -20 -12 0 -20 -42 -58 -64 -58 -19 1 -18 2 6 15 27 15 46 51 33
63 -4 4 -16 -5 -27 -21 -23 -31 -44 -34 -77 -11 -23 17 -25 43 -6 87 5 12 3
17 -9 17 -24 0 -36 -58 -20 -100 l14 -35 -20 25 c-27 34 -25 77 6 117 24 32
25 36 11 66 -30 65 -39 111 -34 162 7 67 46 160 60 146 8 -8 18 -4 35 12 l25
22 -7 -42 c-7 -47 8 -60 23 -20 14 35 46 58 90 64 47 6 56 23 13 23 -34 0 -64
46 -40 61 21 14 37 10 50 -11 7 -11 18 -20 25 -20 15 0 17 16 3 25 -23 14 -7
25 38 25 45 -1 46 -1 22 -15z m-160 -60 c0 -8 -9 -19 -19 -24 -15 -8 -20 -7
-25 6 -7 17 9 33 32 33 6 0 12 -7 12 -15z m-80 -15 c0 -5 -5 -10 -11 -10 -5 0
-7 5 -4 10 3 6 8 10 11 10 2 0 4 -4 4 -10z m436 -590 c13 0 24 -3 24 -6 0 -6
-141 -342 -181 -430 -23 -52 -42 -69 -57 -52 -5 7 -42 90 -82 183 -39 94 -83
194 -96 224 -13 30 -23 55 -22 56 2 1 13 8 26 14 18 9 23 9 27 -2 3 -7 29 -85
58 -172 l53 -160 42 -3 c41 -3 51 4 33 23 -5 6 -14 27 -19 47 -9 32 -8 40 6
48 15 9 14 10 -6 16 -14 4 -25 18 -30 38 -8 30 -7 31 25 34 44 4 42 20 -3 24
-32 3 -38 7 -50 43 -7 22 -14 41 -14 42 0 0 19 1 43 1 51 -1 104 24 119 56
l10 24 36 -24 c19 -13 45 -24 58 -24z m-312 15 c3 -9 0 -15 -9 -15 -16 0 -27
14 -18 24 10 10 21 7 27 -9z m25 -57 c20 -55 22 -78 6 -78 -16 0 -45 55 -45
85 0 23 29 18 39 -7z m38 -133 c10 -31 9 -35 -7 -35 -16 0 -30 25 -30 58 0 27
27 10 37 -23z m27 -92 c4 -16 9 -36 12 -45 3 -11 0 -18 -9 -18 -7 0 -19 17
-25 39 -15 49 -15 51 2 51 8 0 17 -12 20 -27z m-503 -375 c35 -10 39 -14 39
-45 0 -37 -6 -39 -46 -18 -33 17 -62 19 -83 6 -23 -15 2 -37 65 -57 53 -16 94
-51 94 -80 0 -7 -12 -27 -27 -44 l-27 -32 -89 4 c-93 4 -107 11 -107 56 0 30
23 38 52 18 13 -9 43 -16 71 -16 71 0 61 27 -23 61 -77 30 -101 61 -82 104 13
28 61 54 101 55 13 0 41 -5 62 -12z m330 -1 c9 -7 20 -23 24 -37 4 -14 11 -29
15 -35 9 -12 60 -169 60 -185 0 -5 -16 -10 -35 -10 -27 0 -35 4 -35 18 0 29
-21 42 -66 42 -39 0 -43 -2 -46 -27 -2 -20 -9 -29 -26 -31 -49 -7 -53 1 -32
75 47 170 91 229 141 190z m303 -2 c8 -8 22 -40 31 -70 8 -30 19 -55 24 -55 5
0 16 27 25 60 14 48 23 63 42 70 53 21 61 15 73 -52 5 -35 11 -97 12 -138 l2
-75 -36 -3 -37 -3 -1 63 c-1 35 -1 69 0 77 2 7 -2 10 -8 6 -6 -3 -11 -13 -11
-20 0 -8 -7 -30 -17 -49 -30 -64 -61 -58 -95 17 l-23 52 -3 -72 -3 -73 -34 0
c-42 0 -42 2 -31 151 7 95 12 119 25 122 32 9 50 7 65 -8z m384 -12 c6 -16 14
-40 18 -56 13 -55 50 -41 60 24 4 21 12 43 19 49 18 15 65 1 65 -19 -1 -28
-40 -105 -62 -122 -18 -14 -21 -26 -19 -74 l3 -56 -39 3 -38 3 3 53 c2 48 0
55 -28 78 -34 29 -64 111 -48 132 19 22 55 14 66 -15z"/>
<path d="M1294 1885 c-3 -8 -3 -19 1 -25 11 -18 25 -11 25 15 0 27 -17 34 -26
10z"/>
<path d="M1406 1881 c-7 -11 30 -44 44 -39 6 2 5 11 -5 26 -17 23 -30 28 -39
13z"/>
<path d="M1370 1837 c0 -19 27 -53 36 -45 9 10 -12 58 -26 58 -5 0 -10 -6 -10
-13z"/>
<path d="M1219 1813 c5 -10 16 -27 24 -37 21 -28 31 -2 11 29 -19 29 -51 36
-35 8z"/>
<path d="M1450 1791 c-5 -11 -6 -22 -1 -25 11 -7 43 28 34 37 -11 12 -22 8
-33 -12z"/>
<path d="M1026 1783 c-13 -13 -6 -63 9 -63 10 0 15 10 15 29 0 30 -12 46 -24
34z"/>
<path d="M1130 1765 c-13 -14 -21 -28 -17 -31 8 -8 57 23 57 36 0 20 -18 18
-40 -5z"/>
<path d="M1578 1420 c5 -33 -19 -70 -46 -70 -8 0 -30 10 -49 21 -33 21 -35 21
-31 3 2 -10 19 -28 39 -38 31 -17 38 -17 64 -5 38 18 60 58 51 92 -9 38 -34
35 -28 -3z"/>
<path d="M1225 1367 c-5 -12 0 -26 16 -43 32 -34 93 -31 122 8 30 41 10 56
-24 18 -19 -20 -35 -30 -45 -26 -9 3 -20 6 -24 6 -5 0 -16 12 -24 28 -13 24
-15 25 -21 9z"/>
<path d="M1070 548 c0 -7 -3 -23 -6 -35 -5 -19 -2 -23 15 -23 21 0 27 21 15
54 -7 19 -24 21 -24 4z"/>
</g>
</svg>
